SplineFontDB: 3.2
FontName: QuadrillionMonoline-Regular
FullName: Quadrillion Monoline
FamilyName: Quadrillion Monoline
Weight: Regular
Copyright: Copyright (c) 2024, neilb
UComments: "2024-10-26: Created with FontForge (http://fontforge.org)"
Version: 1.000
ItalicAngle: 0
UnderlinePosition: -100
UnderlineWidth: 50
Ascent: 800
Descent: 200
InvalidEm: 0
LayerCount: 2
Layer: 0 0 "Back" 1
Layer: 1 0 "Fore" 0
XUID: [1021 441 2049316168 14921]
StyleMap: 0x0000
FSType: 0
OS2Version: 0
OS2_WeightWidthSlopeOnly: 0
OS2_UseTypoMetrics: 1
CreationTime: 1729927510
ModificationTime: 1730457691
PfmFamily: 17
TTFWeight: 400
TTFWidth: 5
LineGap: 0
VLineGap: 90
OS2TypoAscent: 900
OS2TypoAOffset: 0
OS2TypoDescent: -400
OS2TypoDOffset: 0
OS2TypoLinegap: 300
OS2WinAscent: 0
OS2WinAOffset: 1
OS2WinDescent: 0
OS2WinDOffset: 1
HheadAscent: 900
HheadAOffset: 0
HheadDescent: -400
HheadDOffset: 0
OS2CapHeight: 700
OS2XHeight: 500
OS2Vendor: 'PfEd'
MarkAttachClasses: 1
DEI: 91125
Encoding: UnicodeFull
UnicodeInterp: none
NameList: AGL For New Fonts
DisplaySize: -48
AntiAlias: 1
FitToEm: 1
WinInfo: 58928 16 8
BeginPrivate: 0
EndPrivate
Grid
-1000 500.166748047 m 0
 2000 500.166748047 l 1024
  Named: "x-height"
EndSplineSet
BeginChars: 1114113 121

StartChar: A
Encoding: 65 65 0
Width: 750
Flags: HMW
LayerCount: 2
Fore
SplineSet
125 0 m 0
 95 0 75 24 75 50 c 0
 75 57 77 63 79 69 c 2
 329 669 l 2
 337 687 354 700 375 700 c 0
 396 700 413 687 421 669 c 2
 671 69 l 2
 673 63 675 57 675 50 c 0
 675 24 655 0 625 0 c 0
 604 0 587 13 579 31 c 2
 529 150 l 1
 221 150 l 1
 171 31 l 2
 163 13 146 0 125 0 c 0
375 520 m 1
 263 250 l 1
 487 250 l 1
 375 520 l 1
EndSplineSet
EndChar

StartChar: B
Encoding: 66 66 1
Width: 650
Flags: HMW
LayerCount: 2
Fore
SplineSet
575 200 m 0
 575 88 492 0 375 0 c 2
 125 0 l 2
 97 0 75 22 75 50 c 0
 75 250 75 450 75 650 c 0
 75 678 97 700 125 700 c 2
 375 700 l 2
 492 700 575 612 575 500 c 0
 575 445 551 386 511 350 c 1
 551 314 575 255 575 200 c 0
475 500 m 0
 475 559 439 600 375 600 c 2
 175 600 l 1
 175 400 l 1
 375 400 l 2
 439 400 475 441 475 500 c 0
475 200 m 0
 475 259 439 300 375 300 c 2
 175 300 l 1
 175 100 l 1
 375 100 l 2
 439 100 475 141 475 200 c 0
EndSplineSet
EndChar

StartChar: C
Encoding: 67 67 2
Width: 625
Flags: HMW
LayerCount: 2
Fore
SplineSet
500 200 m 0
 529 200 550 177 550 150 c 0
 550 141 548 132 543 124 c 0
 497 48 417 0 325 0 c 0
 173 0 75 125 75 250 c 2
 75 450 l 2
 75 575 173 700 325 700 c 0
 417 700 497 652 543 576 c 0
 548 568 550 559 550 550 c 0
 550 524 529 500 500 500 c 0
 482 500 466 509 457 524 c 0
 428 573 383 600 325 600 c 0
 227 600 175 525 175 450 c 2
 175 250 l 2
 175 175 227 100 325 100 c 0
 383 100 428 127 457 176 c 0
 466 191 482 200 500 200 c 0
EndSplineSet
EndChar

StartChar: D
Encoding: 68 68 3
Width: 650
Flags: HMW
LayerCount: 2
Fore
SplineSet
125 700 m 2
 325 700 l 2
 477 700 575 575 575 450 c 2
 575 250 l 2
 575 125 477 0 325 0 c 2
 125 0 l 2
 97 0 75 22 75 50 c 2
 75 650 l 2
 75 678 97 700 125 700 c 2
175 600 m 1
 175 100 l 1
 325 100 l 2
 423 100 475 175 475 250 c 2
 475 450 l 2
 475 525 423 600 325 600 c 2
 175 600 l 1
EndSplineSet
EndChar

StartChar: E
Encoding: 69 69 4
Width: 650
Flags: HMW
LayerCount: 2
Fore
SplineSet
125 700 m 2
 525 700 l 2
 553 700 575 678 575 650 c 0
 575 622 553 600 525 600 c 2
 175 600 l 1
 175 400 l 1
 425 400 l 2
 453 400 475 378 475 350 c 0
 475 322 453 300 425 300 c 2
 175 300 l 1
 175 100 l 1
 525 100 l 2
 553 100 575 78 575 50 c 0
 575 22 553 0 525 0 c 2
 125 0 l 2
 97 0 75 22 75 50 c 0
 75 250 75 450 75 650 c 0
 75 678 97 700 125 700 c 2
EndSplineSet
EndChar

StartChar: F
Encoding: 70 70 5
Width: 650
Flags: HMW
LayerCount: 2
Fore
SplineSet
125 700 m 2
 525 700 l 2
 553 700 575 678 575 650 c 0
 575 622 553 600 525 600 c 2
 175 600 l 1
 175 400 l 1
 425 400 l 2
 453 400 475 378 475 350 c 0
 475 322 453 300 425 300 c 2
 175 300 l 1
 175 50 l 2
 175 22 153 0 125 0 c 0
 97 0 75 22 75 50 c 0
 75 250 75 450 75 650 c 0
 75 678 97 700 125 700 c 2
EndSplineSet
EndChar

StartChar: G
Encoding: 71 71 6
Width: 650
Flags: HMW
LayerCount: 2
Fore
SplineSet
550 550 m 0
 550 524 529 500 500 500 c 0
 482 500 466 509 457 524 c 0
 428 573 383 600 325 600 c 0
 227 600 175 525 175 450 c 2
 175 250 l 2
 175 175 227 100 325 100 c 0
 423 100 475 175 475 250 c 2
 475 300 l 1
 375 300 l 2
 347 300 325 322 325 350 c 0
 325 378 347 400 375 400 c 2
 525 400 l 2
 553 400 575 378 575 350 c 2
 575 250 l 2
 575 125 477 0 325 0 c 0
 173 0 75 125 75 250 c 2
 75 450 l 2
 75 575 173 700 325 700 c 0
 417 700 497 652 543 576 c 0
 548 568 550 559 550 550 c 0
EndSplineSet
EndChar

StartChar: H
Encoding: 72 72 7
Width: 650
Flags: HMW
LayerCount: 2
Fore
SplineSet
125 700 m 0
 153 700 175 678 175 650 c 2
 175 400 l 1
 475 400 l 1
 475 650 l 2
 475 678 497 700 525 700 c 0
 553 700 575 678 575 650 c 0
 575 450 575 250 575 50 c 0
 575 22 553 0 525 0 c 0
 497 0 475 22 475 50 c 2
 475 300 l 1
 175 300 l 1
 175 50 l 2
 175 22 153 0 125 0 c 0
 97 0 75 22 75 50 c 2
 75 650 l 2
 75 678 97 700 125 700 c 0
EndSplineSet
EndChar

StartChar: I
Encoding: 73 73 8
Width: 250
Flags: HMW
LayerCount: 2
Fore
SplineSet
125 700 m 0
 153 700 175 678 175 650 c 2
 175 50 l 2
 175 22 153 0 125 0 c 0
 97 0 75 22 75 50 c 2
 75 650 l 2
 75 678 97 700 125 700 c 0
EndSplineSet
EndChar

StartChar: J
Encoding: 74 74 9
Width: 500
Flags: HMW
LayerCount: 2
Fore
SplineSet
250 100 m 0
 296 100 325 153 325 200 c 2
 325 650 l 2
 325 678 347 700 375 700 c 0
 403 700 425 678 425 650 c 2
 425 200 l 2
 425 98 354 0 250 0 c 0
 164 0 115 40 90 65 c 0
 81 74 75 86 75 100 c 0
 75 128 97 150 125 150 c 0
 139 150 151 144 160 135 c 0
 185 110 186 100 250 100 c 0
EndSplineSet
EndChar

StartChar: K
Encoding: 75 75 10
Width: 650
Flags: HMW
LayerCount: 2
Fore
SplineSet
575 50 m 0
 575 23 553 0 525 0 c 0
 509 0 494 8 485 20 c 2
 267 303 l 1
 175 205 l 1
 175 50 l 2
 175 22 153 0 125 0 c 0
 97 0 75 22 75 50 c 2
 75 650 l 2
 75 678 97 700 125 700 c 0
 153 700 175 678 175 650 c 2
 175 351 l 1
 489 684 l 2
 498 694 510 700 525 700 c 0
 553 700 575 677 575 650 c 0
 575 637 569 625 561 616 c 2
 337 377 l 1
 565 80 l 2
 571 72 575 61 575 50 c 0
EndSplineSet
EndChar

StartChar: L
Encoding: 76 76 11
Width: 550
Flags: HMW
LayerCount: 2
Fore
SplineSet
125 700 m 0
 153 700 175 678 175 650 c 2
 175 100 l 1
 425 100 l 2
 453 100 475 78 475 50 c 0
 475 22 453 0 425 0 c 2
 125 0 l 2
 97 0 75 22 75 50 c 2
 75 650 l 2
 75 678 97 700 125 700 c 0
EndSplineSet
EndChar

StartChar: M
Encoding: 77 77 12
Width: 750
Flags: HMW
LayerCount: 2
Fore
SplineSet
75 650 m 2
 75 677 97 700 125 700 c 0
 145 700 162 688 170 672 c 2
 375 262 l 1
 580 672 l 2
 588 688 605 700 625 700 c 0
 653 700 675 678 675 650 c 2
 675 50 l 2
 675 22 653 0 625 0 c 0
 597 0 575 22 575 50 c 2
 575 438 l 1
 420 128 l 2
 412 112 395 100 375 100 c 0
 355 100 338 112 330 128 c 2
 175 438 l 1
 175 50 l 2
 175 22 153 0 125 0 c 0
 97 0 75 22 75 50 c 2
 75 650 l 2
EndSplineSet
EndChar

StartChar: N
Encoding: 78 78 13
Width: 650
Flags: HMW
LayerCount: 2
Fore
SplineSet
525 700 m 0
 553 700 575 678 575 650 c 2
 575 50 l 2
 575 22 553 0 525 0 c 0
 508 0 492 9 483 22 c 2
 175 485 l 1
 175 50 l 2
 175 22 153 0 125 0 c 0
 97 0 75 22 75 50 c 2
 75 650 l 2
 75 678 97 700 125 700 c 0
 142 700 158 691 167 678 c 2
 475 215 l 1
 475 650 l 2
 475 678 497 700 525 700 c 0
EndSplineSet
EndChar

StartChar: O
Encoding: 79 79 14
Width: 650
Flags: HMW
LayerCount: 2
Fore
SplineSet
325 700 m 0
 477 700 575 575 575 450 c 2
 575 250 l 2
 575 125 477 0 325 0 c 0
 173 0 75 125 75 250 c 2
 75 450 l 2
 75 575 173 700 325 700 c 0
325 600 m 0
 227 600 175 525 175 450 c 2
 175 250 l 2
 175 175 227 100 325 100 c 0
 423 100 475 175 475 250 c 2
 475 450 l 2
 475 525 423 600 325 600 c 0
EndSplineSet
EndChar

StartChar: P
Encoding: 80 80 15
Width: 650
Flags: HMW
LayerCount: 2
Fore
SplineSet
575 500 m 0
 575 388 492 300 375 300 c 2
 175 300 l 1
 175 50 l 2
 175 22 153 0 125 0 c 0
 97 0 75 22 75 50 c 0
 75 250 75 450 75 650 c 0
 75 678 97 700 125 700 c 2
 375 700 l 2
 492 700 575 612 575 500 c 0
475 500 m 0
 475 559 439 600 375 600 c 2
 175 600 l 1
 175 400 l 1
 375 400 l 2
 439 400 475 441 475 500 c 0
EndSplineSet
EndChar

StartChar: Q
Encoding: 81 81 16
Width: 700
Flags: HMW
LayerCount: 2
Fore
SplineSet
625 50 m 0
 625 22 602 0 575 0 c 0
 563 0 552 4 544 11 c 2
 485 57 l 1
 443 22 389 0 325 0 c 0
 173 0 75 125 75 250 c 2
 75 450 l 2
 75 575 173 700 325 700 c 0
 477 700 575 575 575 450 c 2
 575 250 l 2
 575 210 565 171 547 135 c 1
 606 89 l 2
 618 80 625 66 625 50 c 0
300 225 m 0
 300 253 322 275 350 275 c 0
 362 275 373 271 381 264 c 2
 466 198 l 1
 472 215 475 232 475 250 c 2
 475 450 l 2
 475 525 423 600 325 600 c 0
 227 600 175 525 175 450 c 2
 175 250 l 2
 175 175 227 100 325 100 c 0
 356 100 382 108 404 120 c 1
 319 186 l 2
 307 195 300 209 300 225 c 0
EndSplineSet
EndChar

StartChar: R
Encoding: 82 82 17
Width: 650
Flags: HMW
LayerCount: 2
Fore
SplineSet
575 50 m 0
 575 23 554 0 525 0 c 0
 508 0 492 9 483 22 c 2
 298 300 l 1
 175 300 l 1
 175 50 l 2
 175 22 153 0 125 0 c 0
 97 0 75 22 75 50 c 0
 75 250 75 450 75 650 c 0
 75 678 97 700 125 700 c 2
 375 700 l 2
 492 700 575 612 575 500 c 0
 575 451 559 402 525 364 c 0
 499 334 461 312 416 304 c 1
 567 78 l 2
 572 70 575 60 575 50 c 0
475 500 m 0
 475 559 439 600 375 600 c 2
 175 600 l 1
 175 400 l 1
 375 400 l 2
 439 400 475 441 475 500 c 0
EndSplineSet
EndChar

StartChar: S
Encoding: 83 83 18
Width: 650
Flags: HMW
LayerCount: 2
Fore
SplineSet
75 150 m 0
 75 177 96 200 125 200 c 0
 142 200 158 191 167 178 c 0
 207 118 261 100 325 100 c 0
 430 100 475 158 475 200 c 0
 475 226 468 248 448 266 c 0
 428 284 392 300 325 300 c 0
 242 300 178 322 135 360 c 0
 92 398 75 451 75 500 c 0
 75 608 180 700 325 700 c 0
 411 700 507 668 567 578 c 0
 572 570 575 560 575 550 c 0
 575 523 554 500 525 500 c 0
 508 500 492 509 483 522 c 0
 443 582 389 600 325 600 c 0
 220 600 175 542 175 500 c 0
 175 474 182 452 202 434 c 0
 222 416 258 400 325 400 c 0
 408 400 472 378 515 340 c 0
 558 302 575 249 575 200 c 0
 575 92 470 0 325 0 c 0
 239 0 143 32 83 122 c 0
 78 130 75 140 75 150 c 0
EndSplineSet
EndChar

StartChar: T
Encoding: 84 84 19
Width: 650
Flags: HMW
LayerCount: 2
Fore
SplineSet
125 700 m 0
 258 700 392 700 525 700 c 0
 553 700 575 678 575 650 c 0
 575 622 553 600 525 600 c 2
 375 600 l 1
 375 50 l 2
 375 22 353 0 325 0 c 0
 297 0 275 22 275 50 c 2
 275 600 l 1
 125 600 l 2
 97 600 75 622 75 650 c 0
 75 678 97 700 125 700 c 0
EndSplineSet
EndChar

StartChar: U
Encoding: 85 85 20
Width: 650
Flags: HMW
LayerCount: 2
Fore
SplineSet
125 700 m 0
 153 700 175 678 175 650 c 2
 175 250 l 2
 175 175 227 100 325 100 c 0
 423 100 475 175 475 250 c 2
 475 650 l 2
 475 678 497 700 525 700 c 0
 553 700 575 678 575 650 c 2
 575 250 l 2
 575 125 477 0 325 0 c 0
 173 0 75 125 75 250 c 2
 75 650 l 2
 75 678 97 700 125 700 c 0
EndSplineSet
EndChar

StartChar: V
Encoding: 86 86 21
Width: 650
Flags: HMW
LayerCount: 2
Fore
SplineSet
525 700 m 0
 555 700 575 676 575 650 c 0
 575 644 574 639 572 634 c 2
 372 34 l 2
 365 14 347 0 325 0 c 0
 303 0 285 14 278 34 c 2
 78 634 l 2
 76 639 75 644 75 650 c 0
 75 676 95 700 125 700 c 0
 148 700 165 686 172 666 c 2
 325 208 l 1
 478 666 l 2
 485 686 503 700 525 700 c 0
EndSplineSet
EndChar

StartChar: W
Encoding: 87 87 22
Width: 950
Flags: HMW
LayerCount: 2
Fore
SplineSet
75 650 m 0
 75 676 95 700 125 700 c 0
 149 700 167 684 173 664 c 2
 300 229 l 1
 427 664 l 2
 433 685 452 700 475 700 c 0
 498 700 517 685 523 664 c 2
 650 229 l 1
 777 664 l 2
 783 685 802 700 825 700 c 0
 855 700 875 676 875 650 c 0
 875 645 874 640 873 636 c 2
 698 36 l 2
 692 15 673 0 650 0 c 0
 627 0 608 15 602 36 c 2
 475 471 l 1
 348 36 l 2
 342 15 323 0 300 0 c 0
 277 0 258 15 252 36 c 2
 77 636 l 2
 76 640 75 645 75 650 c 0
EndSplineSet
EndChar

StartChar: X
Encoding: 88 88 23
Width: 650
Flags: HMW
LayerCount: 2
Fore
SplineSet
75 650 m 0
 75 677 96 700 125 700 c 0
 144 700 158 691 167 678 c 2
 325 440 l 1
 483 678 l 2
 492 691 508 700 525 700 c 0
 554 700 575 677 575 650 c 0
 575 640 572 630 567 622 c 2
 385 350 l 1
 567 78 l 2
 572 70 575 60 575 50 c 0
 575 23 554 0 525 0 c 0
 508 0 492 9 483 22 c 2
 325 260 l 1
 167 22 l 2
 158 9 142 0 125 0 c 0
 96 0 75 23 75 50 c 0
 75 60 78 70 83 78 c 2
 265 350 l 1
 83 622 l 2
 78 630 75 640 75 650 c 0
EndSplineSet
EndChar

StartChar: Y
Encoding: 89 89 24
Width: 650
Flags: HMW
LayerCount: 2
Fore
SplineSet
75 650 m 0
 75 676 96 700 125 700 c 0
 144 700 159 690 168 675 c 2
 325 401 l 1
 482 675 l 2
 490 690 505 700 525 700 c 0
 554 700 575 676 575 650 c 0
 575 641 572 632 568 625 c 2
 375 287 l 1
 375 50 l 2
 375 22 353 0 325 0 c 0
 297 0 275 22 275 50 c 2
 275 287 l 1
 82 625 l 2
 78 632 75 641 75 650 c 0
EndSplineSet
EndChar

StartChar: Z
Encoding: 90 90 25
Width: 650
Flags: HMW
LayerCount: 2
Fore
SplineSet
125 700 m 2
 525 700 l 2
 553 700 575 678 575 650 c 0
 575 640 572 630 567 622 c 2
 218 100 l 1
 525 100 l 2
 553 100 575 78 575 50 c 0
 575 22 553 0 525 0 c 2
 125 0 l 2
 97 0 75 22 75 50 c 0
 75 60 78 70 83 78 c 2
 432 600 l 1
 125 600 l 2
 97 600 75 622 75 650 c 0
 75 678 97 700 125 700 c 2
EndSplineSet
EndChar

StartChar: a
Encoding: 97 97 27
Width: 550
Flags: HMW
LayerCount: 2
Fore
SplineSet
125 375 m 0
 99 375 75 396 75 425 c 0
 75 445 87 462 103 470 c 0
 159 498 200 500 250 500 c 0
 353 500 450 416 450 300 c 2
 450 100 l 1
 478 100 500 78 500 50 c 0
 500 22 478 0 450 0 c 0
 417 0 385 16 368 40 c 1
 334 15 293 0 250 0 c 2
 200 0 l 2
 125 0 50 61 50 150 c 0
 50 239 125 300 200 300 c 2
 350 300 l 1
 350 359 297 400 250 400 c 0
 241 400 234 400 227 400 c 0
 196 400 183 398 147 380 c 0
 140 377 133 375 125 375 c 0
200 200 m 2
 175 200 150 186 150 150 c 0
 150 114 175 100 200 100 c 2
 250 100 l 2
 297 100 350 141 350 200 c 1
 200 200 l 2
EndSplineSet
EndChar

StartChar: b
Encoding: 98 98 28
Width: 500
Flags: HMW
LayerCount: 2
Fore
SplineSet
100 700 m 0
 128 700 150 678 150 650 c 2
 150 473 l 1
 180 491 215 500 250 500 c 0
 353 500 450 416 450 300 c 2
 450 200 l 2
 450 84 353 0 250 0 c 0
 213 0 176 11 145 30 c 1
 137 12 120 0 100 0 c 0
 72 0 50 22 50 50 c 2
 50 650 l 2
 50 678 72 700 100 700 c 0
250 400 m 0
 203 400 150 359 150 300 c 2
 150 200 l 2
 150 141 203 100 250 100 c 0
 297 100 350 141 350 200 c 2
 350 300 l 2
 350 359 297 400 250 400 c 0
EndSplineSet
EndChar

StartChar: c
Encoding: 99 99 29
Width: 475
Flags: HMW
LayerCount: 2
Fore
SplineSet
375 125 m 0
 401 125 425 104 425 75 c 0
 425 55 413 38 397 30 c 0
 341 2 300 0 250 0 c 0
 147 0 50 84 50 200 c 2
 50 300 l 2
 50 416 147 500 250 500 c 0
 300 500 341 498 397 470 c 0
 413 462 425 445 425 425 c 0
 425 396 401 375 375 375 c 0
 367 375 360 377 353 380 c 0
 317 398 304 400 273 400 c 0
 266 400 259 400 250 400 c 0
 203 400 150 359 150 300 c 2
 150 200 l 2
 150 141 203 100 250 100 c 0
 259 100 266 100 273 100 c 0
 304 100 317 102 353 120 c 0
 360 123 367 125 375 125 c 0
EndSplineSet
EndChar

StartChar: e
Encoding: 101 101 31
Width: 500
Flags: HMW
LayerCount: 2
Fore
SplineSet
375 125 m 0
 401 125 425 104 425 75 c 0
 425 55 413 38 397 30 c 0
 341 2 300 0 250 0 c 0
 147 0 50 84 50 200 c 0
 50 233 50 267 50 300 c 0
 50 416 147 500 250 500 c 0
 353 500 450 416 450 300 c 2
 450 250 l 2
 450 222 428 200 400 200 c 2
 150 200 l 1
 150 141 203 100 250 100 c 0
 259 100 266 100 273 100 c 0
 304 100 317 102 353 120 c 0
 360 123 367 125 375 125 c 0
250 400 m 0
 203 400 150 359 150 300 c 1
 350 300 l 1
 350 359 297 400 250 400 c 0
EndSplineSet
EndChar

StartChar: f
Encoding: 102 102 32
Width: 350
Flags: HMW
LayerCount: 2
Fore
SplineSet
250 700 m 0
 278 700 300 678 300 650 c 0
 300 622 278 600 250 600 c 0
 214 600 200 575 200 550 c 2
 200 500 l 1
 250 500 l 2
 278 500 300 478 300 450 c 0
 300 422 278 400 250 400 c 2
 200 400 l 1
 200 50 l 2
 200 22 178 0 150 0 c 0
 122 0 100 22 100 50 c 2
 100 400 l 1
 72 400 50 422 50 450 c 0
 50 478 72 500 100 500 c 1
 100 550 l 2
 100 625 161 700 250 700 c 0
EndSplineSet
EndChar

StartChar: g
Encoding: 103 103 33
Width: 500
Flags: HMW
LayerCount: 2
Fore
SplineSet
75 -125 m 0
 75 -96 99 -75 125 -75 c 0
 133 -75 140 -77 147 -80 c 0
 183 -98 196 -100 227 -100 c 0
 234 -100 241 -100 250 -100 c 0
 297 -100 350 -59 350 0 c 2
 350 27 l 1
 320 9 285 0 250 0 c 0
 147 0 50 84 50 200 c 2
 50 300 l 2
 50 416 147 500 250 500 c 0
 287 500 324 489 355 470 c 1
 363 488 380 500 400 500 c 0
 428 500 450 478 450 450 c 2
 450 0 l 2
 450 -116 353 -200 250 -200 c 0
 200 -200 159 -198 103 -170 c 0
 87 -162 75 -145 75 -125 c 0
250 400 m 0
 203 400 150 359 150 300 c 2
 150 200 l 2
 150 141 203 100 250 100 c 0
 297 100 350 141 350 200 c 2
 350 300 l 2
 350 359 297 400 250 400 c 0
EndSplineSet
EndChar

StartChar: h
Encoding: 104 104 34
Width: 500
Flags: HMW
LayerCount: 2
Fore
SplineSet
100 700 m 0
 128 700 150 678 150 650 c 2
 150 473 l 1
 180 491 215 500 250 500 c 0
 353 500 450 416 450 300 c 2
 450 50 l 2
 450 22 428 0 400 0 c 0
 372 0 350 22 350 50 c 2
 350 300 l 2
 350 359 297 400 250 400 c 0
 203 400 150 359 150 300 c 2
 150 50 l 2
 150 22 128 0 100 0 c 0
 72 0 50 22 50 50 c 0
 50 250 50 450 50 650 c 0
 50 678 72 700 100 700 c 0
EndSplineSet
EndChar

StartChar: i
Encoding: 105 105 35
Width: 224
Flags: HMW
LayerCount: 2
Fore
SplineSet
112 712 m 0
 146 712 174 684 174 650 c 0
 174 616 146 588 112 588 c 0
 78 588 50 616 50 650 c 0
 50 684 78 712 112 712 c 0
112 500 m 0
 140 500 162 478 162 450 c 2
 162 50 l 2
 162 22 140 0 112 0 c 0
 84 0 62 22 62 50 c 2
 62 450 l 2
 62 478 84 500 112 500 c 0
EndSplineSet
EndChar

StartChar: j
Encoding: 106 106 36
Width: 312
Flags: HMW
LayerCount: 2
Fore
SplineSet
200 712 m 0
 234 712 262 684 262 650 c 0
 262 616 234 588 200 588 c 0
 166 588 138 616 138 650 c 0
 138 684 166 712 200 712 c 0
200 500 m 0
 228 500 250 478 250 450 c 2
 250 -50 l 2
 250 -125 189 -200 100 -200 c 0
 72 -200 50 -178 50 -150 c 0
 50 -122 72 -100 100 -100 c 0
 136 -100 150 -75 150 -50 c 2
 150 450 l 2
 150 478 172 500 200 500 c 0
EndSplineSet
EndChar

StartChar: k
Encoding: 107 107 37
Width: 500
Flags: HMW
LayerCount: 2
Fore
SplineSet
450 50 m 0
 450 24 429 0 400 0 c 0
 382 0 366 10 357 24 c 2
 245 208 l 1
 150 104 l 1
 150 50 l 2
 150 22 128 0 100 0 c 0
 72 0 50 22 50 50 c 2
 50 650 l 2
 50 678 72 700 100 700 c 0
 128 700 150 678 150 650 c 2
 150 252 l 1
 363 484 l 2
 372 494 385 500 400 500 c 0
 428 500 450 477 450 450 c 0
 450 437 445 425 437 416 c 2
 315 284 l 1
 443 76 l 2
 448 68 450 60 450 50 c 0
EndSplineSet
EndChar

StartChar: l
Encoding: 108 108 38
Width: 250
Flags: HMW
LayerCount: 2
Fore
SplineSet
100 700 m 0
 128 700 150 678 150 650 c 2
 150 100 l 1
 178 100 200 78 200 50 c 0
 200 22 178 0 150 0 c 0
 120 0 91 13 73 34 c 0
 55 55 50 79 50 100 c 2
 50 650 l 2
 50 678 72 700 100 700 c 0
EndSplineSet
EndChar

StartChar: m
Encoding: 109 109 39
Width: 800
Flags: HMW
LayerCount: 2
Fore
SplineSet
100 500 m 0
 120 500 138 488 146 470 c 1
 177 489 213 500 250 500 c 0
 307 500 362 475 400 432 c 1
 438 475 493 500 550 500 c 0
 653 500 750 416 750 300 c 2
 750 50 l 2
 750 22 728 0 700 0 c 0
 672 0 650 22 650 50 c 2
 650 300 l 2
 650 359 597 400 550 400 c 0
 503 400 450 359 450 300 c 2
 450 50 l 2
 450 22 428 0 400 0 c 0
 372 0 350 22 350 50 c 2
 350 300 l 2
 350 359 297 400 250 400 c 0
 203 400 150 359 150 300 c 2
 150 50 l 2
 150 22 128 0 100 0 c 0
 72 0 50 22 50 50 c 0
 50 183 50 317 50 450 c 0
 50 478 72 500 100 500 c 0
EndSplineSet
EndChar

StartChar: n
Encoding: 110 110 40
Width: 500
Flags: HMW
LayerCount: 2
Fore
SplineSet
100 500 m 0
 120 500 138 488 146 470 c 1
 177 489 213 500 250 500 c 0
 353 500 450 416 450 300 c 2
 450 50 l 2
 450 22 428 0 400 0 c 0
 372 0 350 22 350 50 c 2
 350 300 l 2
 350 359 297 400 250 400 c 0
 203 400 150 359 150 300 c 2
 150 50 l 2
 150 22 128 0 100 0 c 0
 72 0 50 22 50 50 c 0
 50 183 50 317 50 450 c 0
 50 478 72 500 100 500 c 0
EndSplineSet
EndChar

StartChar: o
Encoding: 111 111 41
Width: 500
Flags: HMW
LayerCount: 2
Fore
SplineSet
250 500 m 0
 353 500 450 416 450 300 c 2
 450 200 l 2
 450 84 353 0 250 0 c 0
 147 0 50 84 50 200 c 2
 50 300 l 2
 50 416 147 500 250 500 c 0
250 400 m 0
 203 400 150 359 150 300 c 2
 150 200 l 2
 150 141 203 100 250 100 c 0
 297 100 350 141 350 200 c 2
 350 300 l 2
 350 359 297 400 250 400 c 0
EndSplineSet
EndChar

StartChar: r
Encoding: 114 114 44
Width: 400
Flags: HMW
LayerCount: 2
Fore
SplineSet
350 441 m 0
 350 411 326 391 300 391 c 0
 294 391 288 392 283 394 c 0
 272 398 261 400 250 400 c 0
 203 400 150 359 150 300 c 2
 150 50 l 2
 150 22 128 0 100 0 c 0
 72 0 50 22 50 50 c 0
 50 183 50 317 50 450 c 0
 50 478 72 500 100 500 c 0
 120 500 138 488 146 470 c 1
 177 489 213 500 250 500 c 0
 295 500 350 487 350 441 c 0
EndSplineSet
EndChar

StartChar: s
Encoding: 115 115 45
Width: 500
Flags: HMW
LayerCount: 2
Fore
SplineSet
50 350 m 0
 50 450 148 500 250 500 c 0
 300 500 356 497 426 455 c 0
 441 446 450 430 450 412 c 0
 450 383 427 363 400 363 c 0
 391 363 382 365 374 370 c 0
 327 398 306 400 269 400 c 0
 263 400 257 400 250 400 c 0
 213 400 185 391 169 381 c 0
 153 371 150 365 150 350 c 0
 150 335 153 329 169 319 c 0
 185 309 213 300 250 300 c 0
 352 300 450 250 450 150 c 0
 450 50 352 0 250 0 c 0
 200 0 144 3 74 45 c 0
 59 54 50 70 50 88 c 0
 50 117 73 137 100 137 c 0
 109 137 118 135 126 130 c 0
 173 102 194 100 231 100 c 0
 237 100 243 100 250 100 c 0
 287 100 315 109 331 119 c 0
 347 129 350 135 350 150 c 0
 350 165 347 171 331 181 c 0
 315 191 287 200 250 200 c 0
 148 200 50 250 50 350 c 0
EndSplineSet
EndChar

StartChar: t
Encoding: 116 116 46
Width: 350
Flags: HMW
LayerCount: 2
Fore
SplineSet
150 650 m 0
 178 650 200 628 200 600 c 2
 200 500 l 1
 250 500 l 2
 278 500 300 478 300 450 c 0
 300 422 278 400 250 400 c 2
 200 400 l 1
 200 150 l 2
 200 125 214 100 250 100 c 0
 278 100 300 78 300 50 c 0
 300 22 278 0 250 0 c 0
 161 0 100 75 100 150 c 2
 100 400 l 1
 72 400 50 422 50 450 c 0
 50 478 72 500 100 500 c 1
 100 600 l 2
 100 628 122 650 150 650 c 0
EndSplineSet
EndChar

StartChar: v
Encoding: 118 118 48
Width: 500
Flags: HMW
LayerCount: 2
Fore
SplineSet
50 450 m 0
 50 476 70 500 100 500 c 0
 122 500 140 487 147 468 c 2
 250 192 l 1
 353 468 l 2
 360 487 379 500 400 500 c 0
 430 500 450 476 450 450 c 0
 450 444 449 437 447 432 c 2
 297 32 l 2
 290 13 271 0 250 0 c 0
 229 0 210 13 203 32 c 2
 53 432 l 2
 51 437 50 444 50 450 c 0
EndSplineSet
EndChar

StartChar: w
Encoding: 119 119 49
Width: 700
Flags: HMW
LayerCount: 2
Fore
SplineSet
50 450 m 0
 50 476 70 500 100 500 c 0
 123 500 142 485 148 465 c 2
 225 218 l 1
 302 465 l 2
 308 485 328 500 350 500 c 0
 372 500 392 485 398 465 c 2
 475 218 l 1
 552 465 l 2
 558 485 577 500 600 500 c 0
 630 500 650 476 650 450 c 0
 650 445 649 440 648 435 c 2
 523 35 l 2
 517 15 497 0 475 0 c 0
 453 0 433 15 427 35 c 2
 350 282 l 1
 273 35 l 2
 267 15 247 0 225 0 c 0
 203 0 183 15 177 35 c 2
 52 435 l 2
 51 440 50 445 50 450 c 0
EndSplineSet
EndChar

StartChar: x
Encoding: 120 120 50
Width: 500
Flags: HMW
LayerCount: 2
Fore
SplineSet
50 450 m 0
 50 477 71 500 100 500 c 0
 118 500 131 492 140 480 c 2
 250 333 l 1
 360 480 l 2
 369 492 382 500 400 500 c 0
 429 500 450 477 450 450 c 0
 450 439 446 428 440 420 c 2
 312 250 l 1
 440 80 l 2
 446 72 450 61 450 50 c 0
 450 23 428 0 400 0 c 0
 384 0 369 8 360 20 c 2
 250 167 l 1
 140 20 l 2
 131 8 116 0 100 0 c 0
 71 0 50 23 50 50 c 0
 50 61 54 72 60 80 c 2
 188 250 l 1
 60 420 l 2
 54 428 50 439 50 450 c 0
EndSplineSet
EndChar

StartChar: y
Encoding: 121 121 51
Width: 500
Flags: HMW
LayerCount: 2
Fore
SplineSet
50 450 m 0
 50 476 70 500 100 500 c 0
 122 500 140 487 147 468 c 2
 250 192 l 1
 353 468 l 2
 360 487 379 500 400 500 c 0
 430 500 450 476 450 450 c 0
 450 444 449 437 447 432 c 2
 241 -118 l 2
 221 -171 167 -200 125 -200 c 0
 97 -200 75 -178 75 -150 c 0
 75 -122 97 -100 125 -100 c 0
 126 -100 127 -100 128 -100 c 0
 134 -100 140 -99 148 -81 c 1
 197 50 l 1
 53 432 l 2
 51 437 50 444 50 450 c 0
EndSplineSet
EndChar

StartChar: z
Encoding: 122 122 52
Width: 500
Flags: HMW
LayerCount: 2
Fore
SplineSet
100 500 m 2
 400 500 l 2
 428 500 450 478 450 450 c 0
 450 439 446 428 440 420 c 2
 200 100 l 1
 400 100 l 2
 428 100 450 78 450 50 c 0
 450 22 428 0 400 0 c 2
 100 0 l 2
 72 0 50 22 50 50 c 0
 50 61 54 72 60 80 c 2
 300 400 l 1
 100 400 l 2
 72 400 50 422 50 450 c 0
 50 478 72 500 100 500 c 2
EndSplineSet
EndChar

StartChar: comma
Encoding: 44 44 53
Width: 250
Flags: HMW
LayerCount: 2
Fore
SplineSet
100 -100 m 0
 73 -100 50 -79 50 -50 c 0
 50 -33 59 -17 72 -8 c 0
 86 2 91 7 94 13 c 0
 97 19 100 29 100 50 c 0
 100 78 122 100 150 100 c 0
 178 100 200 78 200 50 c 0
 200 21 197 -7 184 -32 c 0
 171 -57 151 -77 128 -92 c 0
 120 -97 110 -100 100 -100 c 0
EndSplineSet
EndChar

StartChar: period
Encoding: 46 46 54
Width: 224
Flags: HMW
LayerCount: 2
Fore
SplineSet
112 125 m 0
 146 125 174 96 174 62 c 0
 174 28 146 0 112 0 c 0
 78 0 50 28 50 62 c 0
 50 96 78 125 112 125 c 0
EndSplineSet
EndChar

StartChar: exclam
Encoding: 33 33 57
Width: 224
Flags: HMW
LayerCount: 2
Fore
SplineSet
112 700 m 0
 140 700 162 678 162 650 c 2
 162 225 l 2
 162 197 140 175 112 175 c 0
 84 175 62 197 62 225 c 2
 62 650 l 2
 62 678 84 700 112 700 c 0
112 125 m 0
 146 125 174 96 174 62 c 0
 174 28 146 0 112 0 c 0
 78 0 50 28 50 62 c 0
 50 96 78 125 112 125 c 0
EndSplineSet
EndChar

StartChar: question
Encoding: 63 63 58
Width: 500
Flags: HMW
LayerCount: 2
Fore
SplineSet
100 500 m 0
 70 500 50 524 50 550 c 0
 50 556 51 561 53 566 c 0
 80 648 150 700 250 700 c 0
 361 700 450 611 450 500 c 0
 450 452 438 412 418 383 c 0
 398 354 374 336 355 322 c 0
 336 308 323 298 315 286 c 0
 307 274 300 258 300 225 c 0
 300 197 278 175 250 175 c 0
 222 175 200 197 200 225 c 0
 200 273 212 313 232 342 c 0
 252 371 276 388 295 402 c 0
 314 416 327 427 335 439 c 0
 343 451 350 467 350 500 c 0
 350 564 314 600 250 600 c 0
 193 600 163 581 147 534 c 0
 140 514 122 500 100 500 c 0
250 125 m 0
 284 125 312 96 312 62 c 0
 312 28 284 0 250 0 c 0
 216 0 188 28 188 62 c 0
 188 96 216 125 250 125 c 0
EndSplineSet
EndChar

StartChar: hyphen
Encoding: 45 45 63
Width: 400
Flags: HMW
LayerCount: 2
Fore
SplineSet
100 300 m 2
 300 300 l 2
 328 300 350 278 350 250 c 0
 350 222 328 200 300 200 c 2
 100 200 l 2
 72 200 50 222 50 250 c 0
 50 278 72 300 100 300 c 2
EndSplineSet
EndChar

StartChar: endash
Encoding: 8211 8211 64
Width: 600
Flags: HMW
LayerCount: 2
Fore
SplineSet
100 300 m 2
 500 300 l 2
 528 300 550 278 550 250 c 0
 550 222 528 200 500 200 c 2
 100 200 l 2
 72 200 50 222 50 250 c 0
 50 278 72 300 100 300 c 2
EndSplineSet
EndChar

StartChar: emdash
Encoding: 8212 8212 65
Width: 1000
Flags: HMW
LayerCount: 2
Fore
SplineSet
50 300 m 2
 950 300 l 2
 978 300 1000 278 1000 250 c 0
 1000 222 978 200 950 200 c 2
 50 200 l 2
 22 200 0 222 0 250 c 0
 0 278 22 300 50 300 c 2
EndSplineSet
EndChar

StartChar: quotesingle
Encoding: 39 39 66
Width: 200
Flags: HMW
LayerCount: 2
Fore
SplineSet
100 700 m 0
 128 700 150 678 150 650 c 2
 150 550 l 2
 150 522 128 500 100 500 c 0
 72 500 50 522 50 550 c 2
 50 650 l 2
 50 678 72 700 100 700 c 0
EndSplineSet
EndChar

StartChar: zero
Encoding: 48 48 68
Width: 500
Flags: HMW
LayerCount: 2
Fore
SplineSet
250 700 m 0
 353 700 450 616 450 500 c 2
 450 200 l 2
 450 84 353 0 250 0 c 0
 147 0 50 84 50 200 c 2
 50 500 l 2
 50 616 147 700 250 700 c 0
250 600 m 0
 203 600 150 559 150 500 c 2
 150 200 l 2
 150 141 203 100 250 100 c 0
 297 100 350 141 350 200 c 2
 350 500 l 2
 350 559 297 600 250 600 c 0
EndSplineSet
EndChar

StartChar: one
Encoding: 49 49 69
Width: 300
Flags: HMW
LayerCount: 2
Fore
SplineSet
100 500 m 0
 72 500 50 522 50 550 c 0
 50 564 56 576 65 585 c 2
 165 685 l 2
 174 694 186 700 200 700 c 0
 228 700 250 678 250 650 c 2
 250 50 l 2
 250 22 228 0 200 0 c 0
 172 0 150 22 150 50 c 2
 150 529 l 1
 135 515 l 2
 126 506 114 500 100 500 c 0
EndSplineSet
EndChar

StartChar: two
Encoding: 50 50 70
Width: 500
Flags: HMW
LayerCount: 2
Fore
SplineSet
100 550 m 0
 73 550 50 572 50 600 c 0
 50 616 58 630 69 639 c 0
 142 697 212 700 250 700 c 0
 353 700 450 616 450 500 c 0
 450 393 387 329 339 269 c 2
 204 100 l 1
 400 100 l 2
 428 100 450 78 450 50 c 0
 450 22 428 0 400 0 c 2
 100 0 l 2
 72 0 50 22 50 50 c 0
 50 62 54 72 61 81 c 2
 261 331 l 2
 313 396 350 432 350 500 c 0
 350 559 297 600 250 600 c 0
 246 600 241 600 237 600 c 0
 205 600 177 598 131 561 c 0
 122 554 112 550 100 550 c 0
EndSplineSet
EndChar

StartChar: three
Encoding: 51 51 71
Width: 500
Flags: HMW
LayerCount: 2
Fore
SplineSet
100 550 m 0
 73 550 50 572 50 600 c 0
 50 616 58 630 69 639 c 0
 142 697 212 700 250 700 c 0
 353 700 450 616 450 500 c 0
 450 438 422 386 381 350 c 1
 422 314 450 262 450 200 c 0
 450 84 353 0 250 0 c 0
 212 0 142 3 69 61 c 0
 58 70 50 84 50 100 c 0
 50 128 73 150 100 150 c 0
 112 150 122 146 131 139 c 0
 177 102 205 100 237 100 c 0
 241 100 246 100 250 100 c 0
 297 100 350 141 350 200 c 0
 350 259 297 300 250 300 c 2
 200 300 l 2
 172 300 150 322 150 350 c 0
 150 378 172 400 200 400 c 2
 250 400 l 2
 297 400 350 441 350 500 c 0
 350 559 297 600 250 600 c 0
 246 600 241 600 237 600 c 0
 205 600 177 598 131 561 c 0
 122 554 112 550 100 550 c 0
EndSplineSet
EndChar

StartChar: four
Encoding: 52 52 72
Width: 500
Flags: HMW
LayerCount: 2
Fore
SplineSet
300 687 m 0
 330 687 350 663 350 637 c 0
 350 630 348 625 346 619 c 2
 175 200 l 1
 300 200 l 1
 300 300 l 2
 300 328 322 350 350 350 c 0
 378 350 400 328 400 300 c 2
 400 200 l 1
 428 200 450 178 450 150 c 0
 450 122 428 100 400 100 c 1
 400 50 l 2
 400 22 378 0 350 0 c 0
 322 0 300 22 300 50 c 2
 300 100 l 1
 100 100 l 2
 72 100 50 122 50 150 c 0
 50 157 52 163 54 169 c 2
 254 656 l 2
 261 674 279 688 300 688 c 0
 300 687 l 0
EndSplineSet
EndChar

StartChar: five
Encoding: 53 53 73
Width: 500
Flags: HMW
LayerCount: 2
Fore
SplineSet
50 100 m 0
 50 128 73 150 100 150 c 0
 112 150 122 146 131 139 c 0
 177 102 205 100 237 100 c 0
 241 100 246 100 250 100 c 0
 297 100 350 141 350 200 c 2
 350 250 l 2
 350 309 297 350 250 350 c 0
 246 350 241 350 237 350 c 0
 205 350 177 348 131 311 c 0
 122 304 112 300 100 300 c 0
 72 300 50 322 50 350 c 2
 50 650 l 2
 50 678 72 700 100 700 c 2
 400 700 l 2
 428 700 450 678 450 650 c 0
 450 622 428 600 400 600 c 2
 150 600 l 1
 150 434 l 1
 191 448 227 450 250 450 c 0
 353 450 450 366 450 250 c 2
 450 200 l 2
 450 84 353 0 250 0 c 0
 212 0 142 3 69 61 c 0
 58 70 50 84 50 100 c 0
EndSplineSet
EndChar

StartChar: seven
Encoding: 55 55 75
Width: 500
Flags: HMW
LayerCount: 2
Fore
SplineSet
200 0 m 0
 170 0 150 24 150 50 c 0
 150 56 151 61 153 66 c 2
 331 600 l 1
 150 600 l 1
 150 550 l 2
 150 522 128 500 100 500 c 0
 72 500 50 522 50 550 c 2
 50 650 l 2
 50 678 72 700 100 700 c 2
 400 700 l 2
 428 700 450 678 450 650 c 0
 450 644 449 639 447 634 c 2
 247 34 l 2
 240 14 222 0 200 0 c 0
EndSplineSet
EndChar

StartChar: eight
Encoding: 56 56 76
Width: 500
Flags: HMW
LayerCount: 2
Fore
SplineSet
250 700 m 0
 353 700 438 613 438 506 c 0
 438 450 414 400 378 365 c 1
 421 329 450 275 450 212 c 2
 450 200 l 2
 450 84 353 0 250 0 c 0
 147 0 50 84 50 200 c 2
 50 212 l 2
 50 275 79 329 122 365 c 1
 86 400 62 450 62 506 c 0
 62 613 147 700 250 700 c 0
250 600 m 0
 203 600 162 562 162 506 c 0
 162 450 203 412 250 412 c 0
 297 412 338 450 338 506 c 0
 338 562 297 600 250 600 c 0
250 312 m 0
 203 312 150 271 150 212 c 2
 150 200 l 2
 150 141 203 100 250 100 c 0
 297 100 350 141 350 200 c 2
 350 212 l 2
 350 271 297 312 250 312 c 0
EndSplineSet
EndChar

StartChar: nine
Encoding: 57 57 77
Width: 500
Flags: HMW
LayerCount: 2
Fore
SplineSet
62 100 m 0
 62 128 85 150 113 150 c 0
 127 150 139 144 148 135 c 0
 181 102 206 100 236 100 c 0
 241 100 245 100 250 100 c 0
 297 100 350 141 350 200 c 2
 350 277 l 1
 320 259 285 250 250 250 c 0
 147 250 50 334 50 450 c 2
 50 500 l 2
 50 616 147 700 250 700 c 0
 353 700 450 616 450 500 c 0
 450 400 450 300 450 200 c 0
 450 84 353 0 250 0 c 0
 212 0 139 3 77 65 c 0
 68 74 62 86 62 100 c 0
250 600 m 0
 203 600 150 559 150 500 c 2
 150 450 l 2
 150 391 203 350 250 350 c 0
 297 350 350 391 350 450 c 2
 350 500 l 2
 350 559 297 600 250 600 c 0
EndSplineSet
EndChar

StartChar: uniE652
Encoding: 58962 58962 78
Width: 200
Flags: HMW
LayerCount: 2
Fore
SplineSet
100 800 m 0
 128 800 150 778 150 750 c 2
 150 50 l 2
 150 22 128 0 100 0 c 0
 72 0 50 22 50 50 c 2
 50 750 l 2
 50 778 72 800 100 800 c 0
EndSplineSet
EndChar

StartChar: uniE653
Encoding: 58963 58963 79
Width: 375
Flags: HMW
LayerCount: 2
Fore
SplineSet
300 0 m 0
 328 0 350 -22 350 -50 c 0
 350 -64 344 -76 335 -85 c 2
 135 -285 l 2
 126 -294 114 -300 100 -300 c 0
 72 -300 50 -278 50 -250 c 2
 50 450 l 2
 50 478 72 500 100 500 c 0
 128 500 150 478 150 450 c 2
 150 -129 l 1
 265 -15 l 2
 274 -6 286 0 300 0 c 0
EndSplineSet
EndChar

StartChar: uniE654
Encoding: 58964 58964 80
Width: 450
Flags: HMW
LayerCount: 2
Fore
SplineSet
100 750 m 0
 100 776 121 800 150 800 c 0
 169 800 184 790 193 775 c 2
 393 425 l 2
 397 418 400 409 400 400 c 0
 400 372 378 350 350 350 c 0
 336 350 324 356 315 365 c 0
 290 390 283 400 250 400 c 0
 203 400 150 359 150 300 c 2
 150 250 l 2
 150 167 217 100 300 100 c 2
 350 100 l 2
 378 100 400 78 400 50 c 0
 400 22 378 0 350 0 c 2
 300 0 l 2
 163 0 50 113 50 250 c 2
 50 300 l 2
 50 411 139 492 236 499 c 1
 107 725 l 2
 103 732 100 741 100 750 c 0
EndSplineSet
EndChar

StartChar: uniE658
Encoding: 58968 58968 81
Width: 500
Flags: HMW
LayerCount: 2
Fore
SplineSet
250 800 m 0
 353 800 450 716 450 600 c 0
 450 467 450 333 450 200 c 0
 450 84 353 0 250 0 c 0
 147 0 50 84 50 200 c 2
 50 300 l 2
 50 416 147 500 250 500 c 2
 350 500 l 1
 350 600 l 2
 350 659 297 700 250 700 c 0
 222 700 200 722 200 750 c 0
 200 778 222 800 250 800 c 0
250 400 m 2
 203 400 150 359 150 300 c 2
 150 200 l 2
 150 141 203 100 250 100 c 0
 297 100 350 141 350 200 c 2
 350 400 l 1
 250 400 l 2
EndSplineSet
EndChar

StartChar: uniE659
Encoding: 58969 58969 82
Width: 500
Flags: HMW
LayerCount: 2
Fore
SplineSet
388 -150 m 0
 416 -150 438 -172 438 -200 c 0
 438 -214 432 -226 423 -235 c 0
 361 -297 288 -300 250 -300 c 0
 147 -300 50 -216 50 -100 c 0
 50 33 50 167 50 300 c 0
 50 416 147 500 250 500 c 0
 353 500 450 416 450 300 c 2
 450 200 l 2
 450 84 353 0 250 0 c 2
 150 0 l 1
 150 -100 l 2
 150 -159 203 -200 250 -200 c 0
 255 -200 259 -200 264 -200 c 0
 294 -200 319 -198 352 -165 c 0
 361 -156 374 -150 388 -150 c 0
250 400 m 0
 203 400 150 359 150 300 c 2
 150 100 l 1
 250 100 l 2
 297 100 350 141 350 200 c 2
 350 300 l 2
 350 359 297 400 250 400 c 0
EndSplineSet
EndChar

StartChar: uniE660
Encoding: 58976 58976 83
Width: 500
Flags: MW
LayerCount: 2
Fore
SplineSet
250 800 m 0
 353 800 450 716 450 600 c 0
 450 484 353 400 250 400 c 2
 150 400 l 1
 150 50 l 2
 150 22 128 0 100 0 c 0
 72 0 50 22 50 50 c 0
 50 233 50 417 50 600 c 0
 50 716 147 800 250 800 c 0
250 700 m 0
 203 700 150 659 150 600 c 2
 150 500 l 1
 250 500 l 2
 297 500 350 541 350 600 c 0
 350 659 297 700 250 700 c 0
EndSplineSet
EndChar

StartChar: uniE661
Encoding: 58977 58977 84
Width: 400
Flags: MW
LayerCount: 2
Fore
SplineSet
300 500 m 0
 330 500 350 476 350 450 c 0
 350 445 349 440 348 436 c 2
 148 -264 l 2
 142 -285 123 -300 100 -300 c 0
 70 -300 50 -276 50 -250 c 0
 50 -245 51 -240 52 -236 c 2
 252 464 l 2
 258 484 276 500 300 500 c 0
EndSplineSet
EndChar

StartChar: uniE662
Encoding: 58978 58978 85
Width: 400
Flags: MW
LayerCount: 2
Fore
SplineSet
300 800 m 0
 328 800 350 778 350 750 c 0
 350 722 328 700 300 700 c 0
 217 700 150 633 150 550 c 2
 150 50 l 2
 150 22 128 0 100 0 c 0
 72 0 50 22 50 50 c 2
 50 550 l 2
 50 687 163 800 300 800 c 0
EndSplineSet
EndChar

StartChar: uniE663
Encoding: 58979 58979 86
Width: 500
Flags: HMW
LayerCount: 2
Fore
SplineSet
400 500 m 0
 430 500 450 476 450 450 c 0
 450 445 449 440 448 436 c 2
 248 -264 l 2
 242 -285 223 -300 200 -300 c 0
 180 -300 163 -288 155 -272 c 2
 55 -72 l 2
 52 -65 50 -58 50 -50 c 0
 50 -24 71 0 100 0 c 0
 120 0 137 -12 145 -28 c 2
 187 -113 l 1
 352 464 l 2
 358 484 376 500 400 500 c 0
EndSplineSet
EndChar

StartChar: uniE664
Encoding: 58980 58980 87
Width: 500
Flags: HMW
LayerCount: 2
Fore
SplineSet
100 0 m 0
 72 0 50 22 50 50 c 0
 50 64 56 76 65 85 c 2
 179 200 l 1
 128 250 50 324 50 425 c 2
 50 600 l 2
 50 716 147 800 250 800 c 0
 353 800 450 716 450 600 c 2
 450 425 l 2
 450 324 372 250 321 200 c 1
 435 85 l 2
 444 76 450 64 450 50 c 0
 450 22 428 0 400 0 c 0
 386 0 374 6 365 15 c 2
 250 129 l 1
 135 15 l 2
 126 6 114 0 100 0 c 0
250 700 m 0
 203 700 150 659 150 600 c 2
 150 425 l 2
 150 386 202 320 250 271 c 1
 298 320 350 386 350 425 c 2
 350 600 l 2
 350 659 297 700 250 700 c 0
EndSplineSet
EndChar

StartChar: uniE665
Encoding: 58981 58981 88
Width: 500
Flags: HMW
LayerCount: 2
Fore
SplineSet
300 500 m 2
 350 500 l 2
 378 500 400 478 400 450 c 0
 400 422 378 400 350 400 c 2
 300 400 l 2
 217 400 150 333 150 250 c 2
 150 100 l 1
 250 100 l 2
 353 100 450 16 450 -100 c 2
 450 -250 l 2
 450 -278 428 -300 400 -300 c 2
 250 -300 l 2
 147 -300 50 -216 50 -100 c 0
 50 17 50 133 50 250 c 0
 50 387 163 500 300 500 c 2
150 0 m 1
 150 -100 l 2
 150 -159 203 -200 250 -200 c 2
 350 -200 l 1
 350 -100 l 2
 350 -41 297 0 250 0 c 2
 150 0 l 1
EndSplineSet
EndChar

StartChar: uniE666
Encoding: 58982 58982 89
Width: 450
Flags: HMW
LayerCount: 2
Fore
SplineSet
50 450 m 0
 50 478 72 500 100 500 c 0
 112 500 122 496 130 490 c 2
 225 419 l 1
 320 490 l 2
 328 496 339 500 350 500 c 0
 377 500 400 478 400 450 c 0
 400 434 392 419 380 410 c 2
 308 356 l 1
 330 340 l 2
 332 339 333 337 335 335 c 0
 378 292 400 256 400 183 c 0
 400 180 400 178 400 175 c 0
 400 126 383 81 351 49 c 0
 319 17 274 0 225 0 c 0
 176 0 131 17 99 49 c 0
 67 81 50 126 50 175 c 0
 50 178 50 180 50 183 c 0
 50 256 72 292 115 335 c 0
 117 337 118 339 120 340 c 2
 142 356 l 1
 70 410 l 2
 58 419 50 434 50 450 c 0
225 294 m 1
 183 263 l 1
 163 242 157 231 154 222 c 0
 151 213 150 200 150 175 c 0
 150 149 158 132 170 120 c 0
 182 108 199 100 225 100 c 0
 251 100 268 108 280 120 c 0
 292 132 300 149 300 175 c 0
 300 200 299 213 296 222 c 0
 293 231 287 242 267 263 c 1
 225 294 l 1
EndSplineSet
EndChar

StartChar: uniE667
Encoding: 58983 58983 90
Width: 500
Flags: HMW
LayerCount: 2
Fore
SplineSet
400 500 m 0
 428 500 450 478 450 450 c 2
 450 400 l 2
 450 316 400 250 333 219 c 1
 344 198 350 175 350 150 c 0
 350 68 282 0 200 0 c 2
 100 0 l 2
 72 0 50 22 50 50 c 0
 50 78 72 100 100 100 c 2
 200 100 l 2
 228 100 250 122 250 150 c 0
 250 178 228 200 200 200 c 0
 173 200 151 223 151 250 c 0
 151 277 173 300 200 300 c 2
 250 300 l 2
 297 300 350 341 350 400 c 2
 350 450 l 2
 350 478 372 500 400 500 c 0
EndSplineSet
EndChar

StartChar: uniE668
Encoding: 58984 58984 91
Width: 450
Flags: HMW
LayerCount: 2
Fore
SplineSet
100 500 m 2
 150 500 l 2
 287 500 400 387 400 250 c 0
 400 113 287 0 150 0 c 2
 100 0 l 2
 72 0 50 22 50 50 c 0
 50 78 72 100 100 100 c 2
 150 100 l 2
 233 100 300 167 300 250 c 0
 300 333 233 400 150 400 c 2
 100 400 l 2
 72 400 50 422 50 450 c 0
 50 478 72 500 100 500 c 2
EndSplineSet
EndChar

StartChar: uniE669
Encoding: 58985 58985 92
Width: 600
Flags: MW
LayerCount: 2
Fore
SplineSet
300 800 m 0
 328 800 350 778 350 750 c 2
 350 500 l 1
 453 500 550 416 550 300 c 2
 550 200 l 2
 550 84 453 0 350 0 c 2
 250 0 l 2
 147 0 50 84 50 200 c 2
 50 300 l 2
 50 416 147 500 250 500 c 1
 250 750 l 2
 250 778 272 800 300 800 c 0
250 400 m 1
 203 400 150 359 150 300 c 2
 150 200 l 2
 150 141 203 100 250 100 c 1
 250 400 l 1
350 400 m 1
 350 100 l 1
 397 100 450 141 450 200 c 2
 450 300 l 2
 450 359 397 400 350 400 c 1
EndSplineSet
EndChar

StartChar: uniE670
Encoding: 58992 58992 94
Width: 250
Flags: HMW
LayerCount: 2
Fore
SplineSet
125 500 m 0
 153 500 175 478 175 450 c 2
 175 50 l 2
 175 22 153 0 125 0 c 0
 97 0 75 22 75 50 c 2
 75 450 l 2
 75 478 97 500 125 500 c 0
EndSplineSet
EndChar

StartChar: uniE671
Encoding: 58993 58993 95
Width: 500
Flags: HMW
LayerCount: 2
Fore
SplineSet
100 0 m 0
 71 0 50 23 50 50 c 0
 50 61 54 72 60 80 c 2
 360 480 l 2
 369 492 382 500 400 500 c 0
 429 500 450 477 450 450 c 2
 450 50 l 2
 450 22 428 0 400 0 c 0
 372 0 350 22 350 50 c 2
 350 300 l 1
 140 20 l 2
 131 8 116 0 100 0 c 0
EndSplineSet
EndChar

StartChar: uniE673
Encoding: 58995 58995 97
Width: 400
Flags: HMW
LayerCount: 2
Fore
SplineSet
100 500 m 0
 114 500 126 494 135 485 c 1
 155 494 177 500 200 500 c 0
 282 500 350 432 350 350 c 0
 350 268 282 200 200 200 c 0
 183 200 166 203 150 209 c 1
 150 200 l 2
 150 141 203 100 250 100 c 2
 300 100 l 2
 328 100 350 78 350 50 c 0
 350 22 328 0 300 0 c 2
 250 0 l 2
 147 0 50 84 50 200 c 0
 50 283 50 367 50 450 c 0
 50 478 72 500 100 500 c 0
200 400 m 0
 172 400 150 378 150 350 c 0
 150 322 172 300 200 300 c 0
 228 300 250 322 250 350 c 0
 250 378 228 400 200 400 c 0
EndSplineSet
EndChar

StartChar: uniE676
Encoding: 58998 58998 100
Width: 400
Flags: HMW
LayerCount: 2
Fore
SplineSet
300 500 m 0
 328 500 350 478 350 450 c 0
 350 422 328 400 300 400 c 0
 275 400 250 386 250 350 c 2
 250 150 l 2
 250 61 175 0 100 0 c 0
 72 0 50 22 50 50 c 0
 50 78 72 100 100 100 c 0
 125 100 150 114 150 150 c 2
 150 350 l 2
 150 439 225 500 300 500 c 0
EndSplineSet
EndChar

StartChar: uniE67A
Encoding: 59002 59002 104
Width: 400
Flags: HMW
LayerCount: 2
Fore
SplineSet
300 500 m 0
 328 500 350 478 350 450 c 0
 350 422 328 400 300 400 c 0
 217 400 150 333 150 250 c 2
 150 50 l 2
 150 22 128 0 100 0 c 0
 72 0 50 22 50 50 c 2
 50 250 l 2
 50 387 163 500 300 500 c 0
EndSplineSet
EndChar

StartChar: uniE67B
Encoding: 59003 59003 105
Width: 400
Flags: HMW
LayerCount: 2
Fore
SplineSet
200 500 m 2
 300 500 l 2
 328 500 350 478 350 450 c 0
 350 436 344 424 335 415 c 1
 344 395 350 373 350 350 c 0
 350 268 282 200 200 200 c 0
 183 200 166 203 150 209 c 1
 150 50 l 2
 150 22 128 0 100 0 c 0
 72 0 50 22 50 50 c 2
 50 350 l 2
 50 435 117 500 200 500 c 2
200 400 m 0
 172 400 150 378 150 350 c 0
 150 322 172 300 200 300 c 0
 228 300 250 322 250 350 c 0
 250 378 228 400 200 400 c 0
EndSplineSet
EndChar

StartChar: uniE67E
Encoding: 59006 59006 108
Width: 500
Flags: HMW
LayerCount: 2
Fore
SplineSet
250 500 m 0
 353 500 450 416 450 300 c 2
 450 50 l 2
 450 22 428 0 400 0 c 0
 372 0 350 22 350 50 c 2
 350 300 l 2
 350 359 297 400 250 400 c 0
 203 400 150 359 150 300 c 2
 150 50 l 2
 150 22 128 0 100 0 c 0
 72 0 50 22 50 50 c 2
 50 300 l 2
 50 416 147 500 250 500 c 0
EndSplineSet
EndChar

StartChar: uniE650
Encoding: 58960 58960 109
Width: 450
Flags: MW
LayerCount: 2
Fore
SplineSet
300 800 m 2
 350 800 l 2
 378 800 400 778 400 750 c 2
 400 50 l 2
 400 22 378 0 350 0 c 0
 322 0 300 22 300 50 c 2
 300 700 l 1
 217 700 150 633 150 550 c 2
 150 450 l 2
 150 422 128 400 100 400 c 0
 72 400 50 422 50 450 c 2
 50 550 l 2
 50 687 163 800 300 800 c 2
EndSplineSet
EndChar

StartChar: uniE651
Encoding: 58961 58961 110
Width: 500
Flags: MW
LayerCount: 2
Fore
SplineSet
400 500 m 0
 428 500 450 478 450 450 c 0
 450 217 450 -17 450 -250 c 0
 450 -278 428 -300 400 -300 c 2
 250 -300 l 2
 147 -300 50 -216 50 -100 c 0
 50 16 147 100 250 100 c 2
 350 100 l 1
 350 450 l 2
 350 478 372 500 400 500 c 0
250 0 m 2
 203 0 150 -41 150 -100 c 0
 150 -159 203 -200 250 -200 c 2
 350 -200 l 1
 350 0 l 1
 250 0 l 2
EndSplineSet
EndChar

StartChar: uniE65C
Encoding: 58972 58972 111
Width: 450
Flags: HMW
LayerCount: 2
Fore
SplineSet
350 800 m 0
 379 800 400 777 400 750 c 0
 400 741 398 732 393 724 c 2
 181 376 l 1
 168 351 150 313 150 250 c 0
 150 190 165 157 188 135 c 0
 211 113 246 100 300 100 c 2
 350 100 l 2
 378 100 400 78 400 50 c 0
 400 22 378 0 350 0 c 2
 300 0 l 2
 229 0 165 18 119 62 c 0
 73 106 50 172 50 250 c 0
 50 338 80 401 95 426 c 2
 307 776 l 2
 315 790 330 800 350 800 c 0
EndSplineSet
EndChar

StartChar: uniE65E
Encoding: 58974 58974 114
Width: 550
Flags: HMW
LayerCount: 2
Fore
SplineSet
450 800 m 0
 479 800 500 779 500 750 c 0
 500 739 497 731 493 724 c 0
 423 608 351 492 281 376 c 1
 268 351 250 313 250 250 c 0
 250 190 265 157 288 135 c 0
 311 113 346 100 400 100 c 2
 450 100 l 2
 478 100 500 78 500 50 c 0
 500 22 478 0 450 0 c 2
 400 0 l 2
 329 0 265 18 219 62 c 0
 173 106 150 172 150 250 c 0
 150 318 169 371 183 402 c 1
 172 401 161 400 150 400 c 2
 100 400 l 2
 72 400 50 422 50 450 c 0
 50 478 72 500 100 500 c 2
 150 500 l 2
 190 500 213 506 233 519 c 0
 253 532 274 557 301 601 c 2
 407 776 l 2
 415 790 430 800 450 800 c 0
EndSplineSet
EndChar

StartChar: uniE65A
Encoding: 58970 58970 117
Width: 400
Flags: MW
LayerCount: 2
Fore
SplineSet
250 800 m 2
 300 800 l 2
 328 800 350 778 350 750 c 0
 350 722 328 700 300 700 c 2
 250 700 l 2
 203 700 150 659 150 600 c 2
 150 550 l 2
 150 516 158 501 170 486 c 0
 182 471 201 458 226 442 c 0
 251 426 282 409 307 378 c 0
 332 347 350 303 350 250 c 2
 350 200 l 2
 350 84 253 0 150 0 c 2
 100 0 l 2
 72 0 50 22 50 50 c 0
 50 78 72 100 100 100 c 2
 150 100 l 2
 197 100 250 141 250 200 c 2
 250 250 l 2
 250 284 242 299 230 314 c 0
 218 329 199 342 174 358 c 0
 149 374 118 391 93 422 c 0
 68 453 50 497 50 550 c 2
 50 600 l 2
 50 716 147 800 250 800 c 2
EndSplineSet
EndChar

StartChar: uniE655
Encoding: 58965 58965 119
Width: 500
Flags: HMW
LayerCount: 2
Fore
SplineSet
438 400 m 0
 438 372 415 350 387 350 c 0
 373 350 361 356 352 365 c 0
 319 398 294 400 264 400 c 0
 259 400 255 400 250 400 c 0
 203 400 150 359 150 300 c 2
 150 200 l 2
 150 141 203 100 250 100 c 0
 353 100 450 16 450 -100 c 0
 450 -216 353 -300 250 -300 c 0
 147 -300 50 -216 50 -100 c 0
 50 -40 76 14 118 51 c 1
 77 87 50 139 50 200 c 2
 50 300 l 2
 50 416 147 500 250 500 c 0
 288 500 361 497 423 435 c 0
 432 426 438 414 438 400 c 0
250 0 m 0
 186 0 150 -36 150 -100 c 0
 150 -159 203 -200 250 -200 c 0
 297 -200 350 -159 350 -100 c 0
 350 -41 297 0 250 0 c 0
EndSplineSet
EndChar

StartChar: .notdef
Encoding: 1114112 -1 120
Width: 600
VWidth: 0
Flags: HMW
LayerCount: 2
Fore
SplineSet
75 700 m 2
 525 700 l 2
 539 700 550 689 550 675 c 2
 550 25 l 2
 550 11 539 0 525 0 c 2
 75 0 l 2
 61 0 50 11 50 25 c 2
 50 675 l 2
 50 689 61 700 75 700 c 2
130 650 m 1
 300 395 l 1
 470 650 l 1
 130 650 l 1
100 605 m 1
 100 95 l 1
 270 350 l 1
 100 605 l 1
500 605 m 1
 330 350 l 1
 500 95 l 1
 500 605 l 1
300 305 m 1
 130 50 l 1
 470 50 l 1
 300 305 l 1
EndSplineSet
EndChar
